<svg xmlns="http://www.w3.org/2000/svg" viewBox="0 0 90 90" aria-hidden="true">
  <path fill="#000" d="M18 14h34c2.2 0 4 1.8 4 4s-1.8 4-4 4H22v46h46V38c0-2.2 1.8-4 4-4s4 1.8 4 4v34c0 2.2-1.8 4-4 4H18c-2.2 0-4-1.8-4-4V18c0-2.2 1.8-4 4-4Z"/>
  <path fill="#000" d="M58.6 11.8c1.6-1.6 4.1-1.6 5.7 0l13.9 13.9c1.6 1.6 1.6 4.1 0 5.7L47.7 61.9c-.6.6-1.3 1-2.1 1.1l-14.3 2.7c-1.3.2-2.6-.2-3.5-1.2-.9-.9-1.4-2.2-1.2-3.5l2.7-14.3c.2-.8.5-1.5 1.1-2.1l28.2-28.2Zm2.8 8.5L36.9 44.8l8.3 8.3 24.5-24.5-8.3-8.3ZM37.1 54.9l-2.5-2.5-.8 4.2 3.3-.7v-1Z"/>
  <path fill="#000" d="M27 28h17c2.2 0 4 1.8 4 4s-1.8 4-4 4H27c-2.2 0-4-1.8-4-4s1.8-4 4-4Zm0 43h22c2.2 0 4 1.8 4 4s-1.8 4-4 4H27c-2.2 0-4-1.8-4-4s1.8-4 4-4Z"/>
</svg>
